<mxfile host="app.diagrams.net" agent="Mozilla/5.0 (Windows NT 10.0; Win64; x64) AppleWebKit/537.36 (KHTML, like Gecko) Chrome/140.0.0.0 Safari/537.36 Edg/140.0.0.0" version="28.2.1">
  <diagram id="uY5-RRwIo0BSx6Q1QqhO" name="ページ1">
    <mxGraphModel dx="1103" dy="520" grid="1" gridSize="10" guides="1" tooltips="1" connect="1" arrows="1" fold="1" page="1" pageScale="1" pageWidth="827" pageHeight="1169" math="0" shadow="0">
      <root>
        <mxCell id="0" />
        <mxCell id="1" parent="0" />
        <mxCell id="cKouqz_D4hwZFvPdDdeg-2" value="Actor" style="shape=umlActor;verticalLabelPosition=bottom;verticalAlign=top;html=1;outlineConnect=0;" vertex="1" parent="1">
          <mxGeometry x="230" y="250" width="30" height="60" as="geometry" />
        </mxCell>
        <mxCell id="cKouqz_D4hwZFvPdDdeg-3" value="web構文" style="rounded=0;whiteSpace=wrap;html=1;" vertex="1" parent="1">
          <mxGeometry x="20" y="30" width="120" height="60" as="geometry" />
        </mxCell>
        <mxCell id="cKouqz_D4hwZFvPdDdeg-6" value="" style="swimlane;startSize=0;" vertex="1" parent="1">
          <mxGeometry x="400" y="180" width="200" height="190" as="geometry" />
        </mxCell>
        <mxCell id="cKouqz_D4hwZFvPdDdeg-8" value="システム内部" style="text;html=1;align=center;verticalAlign=middle;resizable=0;points=[];autosize=1;strokeColor=none;fillColor=none;" vertex="1" parent="cKouqz_D4hwZFvPdDdeg-6">
          <mxGeometry x="50" y="10" width="100" height="30" as="geometry" />
        </mxCell>
        <mxCell id="cKouqz_D4hwZFvPdDdeg-9" value="学生情報を登録する" style="ellipse;whiteSpace=wrap;html=1;" vertex="1" parent="cKouqz_D4hwZFvPdDdeg-6">
          <mxGeometry x="35" y="40" width="130" height="50" as="geometry" />
        </mxCell>
        <mxCell id="cKouqz_D4hwZFvPdDdeg-10" value="学生論文を登録する" style="ellipse;whiteSpace=wrap;html=1;" vertex="1" parent="cKouqz_D4hwZFvPdDdeg-6">
          <mxGeometry x="35" y="120" width="130" height="50" as="geometry" />
        </mxCell>
        <mxCell id="cKouqz_D4hwZFvPdDdeg-11" value="" style="endArrow=none;html=1;rounded=0;" edge="1" parent="1">
          <mxGeometry width="50" height="50" relative="1" as="geometry">
            <mxPoint x="280" y="280" as="sourcePoint" />
            <mxPoint x="420" y="250" as="targetPoint" />
          </mxGeometry>
        </mxCell>
        <mxCell id="cKouqz_D4hwZFvPdDdeg-12" value="" style="endArrow=none;html=1;rounded=0;" edge="1" parent="1">
          <mxGeometry width="50" height="50" relative="1" as="geometry">
            <mxPoint x="280" y="280" as="sourcePoint" />
            <mxPoint x="420" y="320" as="targetPoint" />
          </mxGeometry>
        </mxCell>
        <mxCell id="cKouqz_D4hwZFvPdDdeg-14" value="アフター" style="text;html=1;align=center;verticalAlign=middle;whiteSpace=wrap;rounded=0;" vertex="1" parent="1">
          <mxGeometry x="70" y="190" width="60" height="30" as="geometry" />
        </mxCell>
        <mxCell id="cKouqz_D4hwZFvPdDdeg-15" value="" style="endArrow=block;dashed=1;endFill=0;endSize=12;html=1;rounded=0;exitX=0.5;exitY=1;exitDx=0;exitDy=0;" edge="1" parent="1" source="cKouqz_D4hwZFvPdDdeg-14">
          <mxGeometry width="160" relative="1" as="geometry">
            <mxPoint x="-60" y="230" as="sourcePoint" />
            <mxPoint x="200" y="270" as="targetPoint" />
          </mxGeometry>
        </mxCell>
      </root>
    </mxGraphModel>
  </diagram>
</mxfile>
